<svg width="178" height="179" viewBox="0 0 178 179" fill="none" xmlns="http://www.w3.org/2000/svg">
<g filter="url(#filter0_f_1_30)">
<path d="M98.9999 106C61.9999 135.41 -4.51831 89.6164 -7 148.5V0H148C105.006 16.9167 138 75.0001 98.9999 106Z" fill="#FF9DB0"/>
</g>
<path d="M106 106C68.9999 135.41 2.48169 89.6164 0 148.5V0H155C112.006 16.9167 145 75.0001 106 106Z" fill="#FF9DB0"/>
<path d="M80 66.2015C80 69.4167 78.7809 72.5001 76.6108 74.7736C74.4407 77.0471 71.4975 78.3243 68.4286 78.3243H54.4464C54.0628 78.3243 53.6949 78.1646 53.4236 77.8804C53.1524 77.5963 53 77.2108 53 76.8089C53 76.407 53.1524 76.0216 53.4236 75.7374C53.6949 75.4532 54.0628 75.2936 54.4464 75.2936H68.4286C70.7303 75.2936 72.9377 74.3357 74.5652 72.6306C76.1928 70.9255 77.1071 68.6129 77.1071 66.2015C77.1071 63.7901 76.1928 61.4775 74.5652 59.7724C72.9377 58.0673 70.7303 57.1094 68.4286 57.1094H57.9371L59.3257 58.5642C59.5966 58.8483 59.7487 59.2334 59.7487 59.635C59.7487 60.0366 59.5966 60.4217 59.3257 60.7058C59.0545 60.9896 58.6869 61.149 58.3036 61.149C57.9203 61.149 57.5526 60.9896 57.2814 60.7058L53.4243 56.6649C53.1534 56.3808 53.0013 55.9956 53.0013 55.5941C53.0013 55.1925 53.1534 54.8074 53.4243 54.5232L57.2814 50.4823C57.4138 50.3334 57.5735 50.214 57.751 50.1312C57.9284 50.0484 58.1199 50.0038 58.3141 50.0002C58.5083 49.9966 58.7013 50.0341 58.8814 50.1103C59.0615 50.1865 59.2251 50.2999 59.3624 50.4438C59.4998 50.5877 59.6081 50.7591 59.6808 50.9478C59.7536 51.1365 59.7893 51.3386 59.7859 51.5421C59.7824 51.7455 59.7399 51.9462 59.6609 52.1321C59.5818 52.318 59.4678 52.4853 59.3257 52.624L57.9371 54.0787H68.4286C71.4975 54.0787 74.4407 55.3559 76.6108 57.6294C78.7809 59.9029 80 62.9863 80 66.2015Z" fill="white"/>
<defs>
<filter id="filter0_f_1_30" x="-37" y="-30" width="215" height="208.5" filterUnits="userSpaceOnUse" color-interpolation-filters="sRGB">
<feFlood flood-opacity="0" result="BackgroundImageFix"/>
<feBlend mode="normal" in="SourceGraphic" in2="BackgroundImageFix" result="shape"/>
<feGaussianBlur stdDeviation="15" result="effect1_foregroundBlur_1_30"/>
</filter>
</defs>
</svg>
