<svg width="31" height="31" viewBox="0 0 31 31" fill="none" xmlns="http://www.w3.org/2000/svg">
<path d="M26.8441 14.8122C23.8318 11.8105 19.7526 10.1251 15.5001 10.1251C11.2475 10.1251 7.16834 11.8105 4.156 14.8122C3.97358 14.9946 3.87109 15.242 3.87109 15.5C3.87109 15.758 3.97358 16.0054 4.156 16.1878C4.33841 16.3702 4.58583 16.4727 4.84381 16.4727C5.10179 16.4727 5.3492 16.3702 5.53162 16.1878C8.17639 13.5458 11.7618 12.0618 15.5001 12.0618C19.2383 12.0618 22.8237 13.5458 25.4685 16.1878C25.5586 16.2786 25.6657 16.3507 25.7837 16.3998C25.9018 16.449 26.0284 16.4743 26.1563 16.4743C26.2842 16.4743 26.4108 16.449 26.5289 16.3998C26.6469 16.3507 26.7541 16.2786 26.8441 16.1878C26.9349 16.0977 27.007 15.9906 27.0562 15.8725C27.1054 15.7545 27.1307 15.6279 27.1307 15.5C27.1307 15.3721 27.1054 15.2455 27.0562 15.1274C27.007 15.0094 26.9349 14.9022 26.8441 14.8122ZM23.2501 20.5084C20.1252 22.5521 16.3213 23.2829 12.6616 22.5428C12.4047 22.4914 12.1379 22.5442 11.9199 22.6895C11.7019 22.8349 11.5505 23.0609 11.4991 23.3178C11.4477 23.5747 11.5005 23.8415 11.6459 24.0595C11.7912 24.2776 12.0172 24.4289 12.2741 24.4803C16.4375 25.322 20.7649 24.4865 24.3157 22.1553C24.5341 22.014 24.6874 21.7917 24.7419 21.5374C24.7964 21.283 24.7476 21.0174 24.6063 20.799C24.465 20.5806 24.2427 20.4273 23.9884 20.3728C23.734 20.3183 23.4684 20.3671 23.2501 20.5084ZM9.35818 21.4287C8.80456 21.1538 8.26759 20.8465 7.75006 20.5084C7.53735 20.3943 7.28971 20.3637 7.05564 20.4227C6.82157 20.4816 6.61792 20.6258 6.48459 20.827C6.35126 21.0282 6.29785 21.2719 6.33481 21.5105C6.37178 21.749 6.49646 21.9651 6.68443 22.1165C7.27261 22.511 7.88765 22.8638 8.52506 23.1725C8.65425 23.2374 8.79704 23.2706 8.94162 23.2693C9.16041 23.2681 9.37233 23.1928 9.54286 23.0557C9.7134 22.9186 9.83251 22.7278 9.8808 22.5145C9.9291 22.3011 9.90373 22.0776 9.80884 21.8804C9.71394 21.6833 9.5551 21.5241 9.35818 21.4287Z" fill="#FB6F92"/>
<path d="M15.5 21.3125C16.2665 21.3125 17.0156 21.0852 17.6529 20.6594C18.2901 20.2337 18.7868 19.6285 19.0801 18.9204C19.3734 18.2123 19.4501 17.4332 19.3006 16.6815C19.1511 15.9298 18.782 15.2394 18.2401 14.6975C17.6982 14.1555 17.0077 13.7865 16.256 13.637C15.5043 13.4874 14.7252 13.5642 14.0172 13.8575C13.3091 14.1508 12.7039 14.6474 12.2781 15.2847C11.8523 15.9219 11.625 16.6711 11.625 17.4375C11.625 18.4652 12.0333 19.4508 12.76 20.1775C13.4867 20.9042 14.4723 21.3125 15.5 21.3125ZM15.5 15.5C15.8833 15.5 16.2578 15.6136 16.5765 15.8265C16.8951 16.0394 17.1434 16.342 17.2901 16.6961C17.4367 17.0501 17.4751 17.4396 17.4003 17.8155C17.3256 18.1913 17.141 18.5366 16.8701 18.8075C16.5991 19.0785 16.2539 19.263 15.878 19.3378C15.5022 19.4125 15.1126 19.3742 14.7586 19.2275C14.4046 19.0809 14.102 18.8325 13.8891 18.5139C13.6762 18.1953 13.5625 17.8207 13.5625 17.4375C13.5625 16.9236 13.7667 16.4308 14.13 16.0675C14.4934 15.7041 14.9862 15.5 15.5 15.5ZM15.5 7.75C15.757 7.75 16.0034 7.64794 16.1851 7.46626C16.3667 7.28458 16.4688 7.03818 16.4688 6.78125V3.875C16.4688 3.61807 16.3667 3.37167 16.1851 3.18999C16.0034 3.00831 15.757 2.90625 15.5 2.90625C15.2431 2.90625 14.9967 3.00831 14.815 3.18999C14.6334 3.37167 14.5313 3.61807 14.5313 3.875V6.78125C14.5313 7.03818 14.6334 7.28458 14.815 7.46626C14.9967 7.64794 15.2431 7.75 15.5 7.75ZM20.3438 8.71875C20.5034 8.71792 20.6602 8.6777 20.8005 8.60165C20.9408 8.5256 21.0601 8.41607 21.1479 8.28281L23.0854 5.37656C23.1699 5.27159 23.2316 5.15013 23.2666 5.01994C23.3015 4.88975 23.3089 4.75371 23.2882 4.62051C23.2676 4.4873 23.2194 4.35987 23.1467 4.24637C23.074 4.13286 22.9784 4.03578 22.866 3.96132C22.7537 3.88686 22.627 3.83667 22.4942 3.81396C22.3613 3.79125 22.2251 3.79652 22.0944 3.82942C21.9637 3.86233 21.8413 3.92215 21.735 4.00506C21.6288 4.08798 21.541 4.19215 21.4772 4.31094L19.5397 7.21719C19.3995 7.43076 19.3494 7.69108 19.4002 7.94146C19.451 8.19184 19.5986 8.41202 19.811 8.55406C19.967 8.66333 20.1533 8.72093 20.3438 8.71875ZM9.85224 8.28281C9.93999 8.41607 10.0593 8.5256 10.1996 8.60165C10.3399 8.6777 10.4967 8.71792 10.6563 8.71875C10.8468 8.72093 11.0331 8.66333 11.1891 8.55406C11.4015 8.41202 11.5491 8.19184 11.5999 7.94146C11.6507 7.69108 11.6006 7.43076 11.4604 7.21719L9.52286 4.31094C9.45915 4.19215 9.37134 4.08798 9.26507 4.00506C9.15879 3.92215 9.03638 3.86233 8.90567 3.82942C8.77495 3.79652 8.63881 3.79125 8.50595 3.81396C8.37308 3.83667 8.24642 3.88686 8.13406 3.96132C8.02169 4.03578 7.92611 4.13286 7.85341 4.24637C7.78071 4.35987 7.73249 4.4873 7.71185 4.62051C7.69121 4.75371 7.69859 4.88975 7.73353 5.01994C7.76846 5.15013 7.83018 5.27159 7.91474 5.37656L9.85224 8.28281Z" fill="#FB6F92"/>
</svg>
